<svg xmlns="http://www.w3.org/2000/svg" width="1200" height="630" viewBox="0 0 1200 630" role="img" aria-labelledby="title desc">
  <title id="title">Cliff Owino Portfolio</title>
  <desc id="desc">Dark technology-themed cover with AI and data illustration.</desc>
  <defs>
    <linearGradient id="bg" x1="0" x2="1" y1="0" y2="1">
      <stop offset="0%" stop-color="#07111d"/>
      <stop offset="100%" stop-color="#101d2d"/>
    </linearGradient>
    <linearGradient id="accent" x1="0" x2="1" y1="0" y2="1">
      <stop offset="0%" stop-color="#52c8ff"/>
      <stop offset="100%" stop-color="#8b5cf6"/>
    </linearGradient>
  </defs>
  <rect width="1200" height="630" fill="url(#bg)"/>
  <circle cx="191" cy="168" r="120" fill="#52c8ff" opacity="0.16"/>
  <circle cx="942" cy="460" r="160" fill="#8b5cf6" opacity="0.12"/>
  <g opacity="0.9">
    <path d="M130 432L315 300L440 400L610 246L800 348L1038 180" fill="none" stroke="url(#accent)" stroke-width="6" stroke-linecap="round" stroke-linejoin="round"/>
    <circle cx="130" cy="432" r="9" fill="#52c8ff"/>
    <circle cx="315" cy="300" r="9" fill="#52c8ff"/>
    <circle cx="440" cy="400" r="9" fill="#5eead4"/>
    <circle cx="610" cy="246" r="9" fill="#52c8ff"/>
    <circle cx="800" cy="348" r="9" fill="#8b5cf6"/>
    <circle cx="1038" cy="180" r="9" fill="#52c8ff"/>
  </g>
  <g>
    <rect x="120" y="85" width="280" height="52" rx="16" fill="#0d1828" stroke="#2e4c67"/>
    <text x="150" y="119" font-family="Segoe UI, Arial, sans-serif" font-size="26" fill="#ebf4ff" letter-spacing="3">HELLO, I'M</text>
    <text x="120" y="225" font-family="Segoe UI, Arial, sans-serif" font-size="68" font-weight="700" fill="#ebf4ff">Cliff Owino</text>
    <text x="120" y="290" font-family="Segoe UI, Arial, sans-serif" font-size="35" font-weight="600" fill="#52c8ff">AI &amp; Technology Enthusiast</text>
    <rect x="120" y="330" width="292" height="54" rx="18" fill="#0d1828" stroke="#2e4c67"/>
    <text x="155" y="365" font-family="Segoe UI, Arial, sans-serif" font-size="22" fill="#ebf4ff">Kisumu, Kenya</text>
  </g>
</svg>
